<?xml version="1.0" standalone="no"?>
<!DOCTYPE svg PUBLIC "-//W3C//DTD SVG 20010904//EN"
 "http://www.w3.org/TR/2001/REC-SVG-20010904/DTD/svg10.dtd">
<svg version="1.0" xmlns="http://www.w3.org/2000/svg"
 width="260.000000pt" height="260.000000pt" viewBox="0 0 260.000000 260.000000"
 preserveAspectRatio="xMidYMid meet">
<metadata>
Created by potrace 1.11, written by Peter Selinger 2001-2013
</metadata>
<g transform="translate(0.000000,260.000000) scale(0.100000,-0.100000)"
fill="#000000" stroke="none">
<path d="M0 1300 l0 -1300 1300 0 1300 0 0 1300 0 1300 -1300 0 -1300 0 0
-1300z m885 925 c160 -42 298 -161 385 -332 17 -35 33 -63 35 -63 3 0 16 24
30 53 64 131 182 250 300 302 251 112 528 4 653 -255 49 -102 70 -183 78 -310
9 -129 -8 -221 -59 -323 -61 -124 -164 -221 -408 -385 -201 -135 -322 -233
-418 -338 -66 -71 -138 -167 -159 -211 l-15 -32 -34 57 c-55 90 -109 155 -207
249 -97 92 -170 147 -401 295 -319 205 -438 396 -422 674 14 240 104 434 252
539 67 48 95 61 170 81 69 17 150 17 220 -1z"/>
</g>
</svg>
