<svg xmlns="http://www.w3.org/2000/svg" xmlns:xlink="http://www.w3.org/1999/xlink" xml:space="preserve" version="1.1" style="shape-rendering:geometricPrecision;text-rendering:geometricPrecision;image-rendering:optimizeQuality;" viewBox="0 0 612.28 973.6875" x="0px" y="0px" fill-rule="evenodd" clip-rule="evenodd"><defs><style type="text/css">
   
    .fil0 {fill:black}
   
  </style></defs><g><path class="fil0" d="M0.08 485.94c-2.81,-131.38 71.37,-215.29 165.74,-322.03 41.14,-46.53 86.25,-97.54 130.21,-158.74 5.05,-7 15.47,-6.83 20.32,0.14 43.93,61.14 89,112.1 130.11,158.6 94.37,106.74 168.55,190.65 165.74,322.03 -3.8,176.72 -135.38,293.04 -306.06,293 -170.62,0.19 -302.27,-116.44 -306.06,-293zm84.06 76.82c-5.39,-15.5 18.16,-23.67 23.54,-8.2 0.12,0.36 44.49,130.61 174.61,119.18 16.38,-1.41 18.51,23.49 2.14,24.9 -149.54,13.14 -200.15,-135.46 -200.29,-135.88z"/></g><text x="0" y="793.95" fill="#000000" font-size="5px" font-weight="bold" font-family="'Helvetica Neue', Helvetica, Arial-Unicode, Arial, Sans-serif">Created by Fahmi</text><text x="0" y="798.95" fill="#000000" font-size="5px" font-weight="bold" font-family="'Helvetica Neue', Helvetica, Arial-Unicode, Arial, Sans-serif">from the Noun Project</text></svg>