<?xml version="1.0" encoding="utf-8"?>
<!-- Generator: Adobe Illustrator 25.3.1, SVG Export Plug-In . SVG Version: 6.00 Build 0)  -->
<svg version="1.1" id="Layer_1" xmlns="http://www.w3.org/2000/svg" xmlns:xlink="http://www.w3.org/1999/xlink" x="0px" y="0px"
	 viewBox="0 0 100 89.4" style="enable-background:new 0 0 100 89.4;" xml:space="preserve">
<style type="text/css">
	.st0{fill:#AE1216;}
	.st1{fill:#DC0025;}
	.st2{fill:#FFFFFF;}
</style>
<path class="st0" d="M98.5,24.8c-3-26.4-39.2-34.2-48.5-4C40.7-9.3,4.5-1.6,1.5,24.8c-0.1,1.1-0.2,2.3-0.2,3.5c0,0.4,0,0.9,0,1.3
	c0,0.2,0,0.4,0,0.6s0,0.4,0,0.6l0,0C4.1,59.2,50,88,50,88s45.9-28.8,48.6-57.1l0,0c0-0.2,0-0.4,0-0.6s0-0.4,0-0.6c0-0.4,0-0.9,0-1.3
	C98.7,27.1,98.6,26,98.5,24.8z"/>
<path class="st1" d="M79.1,32.7C77.3,16.9,55.6,12.2,50,30.3c-5.6-18.1-27.3-13.4-29.1,2.4c-0.1,0.7-0.1,1.4-0.1,2.1
	c0,0.2,0,0.5,0,0.8c0,0.1,0,0.2,0,0.4c0,0.1,0,0.2,0,0.4l0,0C22.4,53.4,50,70.7,50,70.7s27.5-17.3,29.2-34.3l0,0c0-0.1,0-0.2,0-0.4
	c0-0.1,0-0.2,0-0.4c0-0.2,0-0.5,0-0.8C79.2,34.1,79.1,33.5,79.1,32.7z"/>
<path class="st2" d="M67.4,37.5C66.4,28,53.3,25.2,50,36.1c-3.3-10.8-16.4-8.1-17.5,1.4c0,0.4-0.1,0.8-0.1,1.3c0,0.1,0,0.3,0,0.5
	c0,0.1,0,0.1,0,0.2c0,0.1,0,0.1,0,0.2l0,0C33.5,49.9,50,60.3,50,60.3s16.5-10.4,17.5-20.6l0,0c0-0.1,0-0.1,0-0.2c0-0.1,0-0.1,0-0.2
	c0-0.1,0-0.3,0-0.5C67.5,38.3,67.5,38,67.4,37.5z"/>
</svg>
