<?xml version="1.0" encoding="utf-8"?>
<!-- Generator: Adobe Illustrator 25.3.1, SVG Export Plug-In . SVG Version: 6.00 Build 0)  -->
<svg version="1.1" id="Layer_1" xmlns="http://www.w3.org/2000/svg" xmlns:xlink="http://www.w3.org/1999/xlink" x="0px" y="0px"
	 viewBox="0 0 22.7 27.9" style="enable-background:new 0 0 22.7 27.9;" xml:space="preserve">
<style type="text/css">
	.st0{fill-rule:evenodd;clip-rule:evenodd;fill:#FFFFFF;}
</style>
<path id="trash-can-hover" class="st0" d="M3.7,26.4c0.1,0.9,0.8,1.5,1.7,1.5H19c0.9,0,1.6-0.6,1.7-1.5l1.5-15.7H2.2L3.7,26.4z
	 M15.5,15.5c0-0.4,0.4-0.8,0.8-0.8s0.8,0.4,0.8,0.8v7.4c0,0.4-0.3,0.8-0.8,0.8c0,0,0,0,0,0c-0.4,0-0.8-0.4-0.8-0.8l0,0L15.5,15.5
	L15.5,15.5z M11.4,15.5c0-0.4,0.3-0.8,0.8-0.8c0,0,0,0,0,0c0.4,0,0.8,0.4,0.8,0.8v7.4c0,0.4-0.3,0.8-0.8,0.8c0,0,0,0,0,0
	c-0.4,0-0.8-0.4-0.8-0.8l0,0V15.5z M7.2,15.5c0-0.4,0.4-0.8,0.8-0.8c0.4,0,0.8,0.4,0.8,0.8l0,0v7.4c0,0.4-0.4,0.8-0.8,0.8
	c-0.4,0-0.8-0.4-0.8-0.8l0,0V15.5z M2.2,0.3L8.6,2l0.2-0.8c0.2-0.9,1.1-1.4,2-1.2c0,0,0,0,0,0l0,0L14,0.9c0.9,0.2,1.4,1.1,1.2,1.9
	c0,0,0,0,0,0l0,0L15,3.7l6.4,1.7c0.9,0.2,1.4,1.1,1.2,1.9c0,0,0,0,0,0c-0.2,0.9-1.1,1.4-2,1.2c0,0,0,0,0,0l-19.4-5
	C0.4,3.3-0.2,2.5,0,1.6c0,0,0,0,0,0C0.3,0.6,1.2,0.1,2.2,0.3L2.2,0.3z"/>
</svg>
