<svg xmlns="http://www.w3.org/2000/svg" width="22.688" height="27.875" viewBox="0 0 22.688 27.875">
  <defs>
    <style>
      .cls-1 {
        fill: #b40033;
        fill-rule: evenodd;
      }
    </style>
  </defs>
  <path id="trash-can-hover" class="cls-1" d="M3.819,26.53a1.646,1.646,0,0,0,1.707,1.48H19.181a1.646,1.646,0,0,0,1.707-1.48l1.506-15.691H2.313ZM15.667,15.674a0.8,0.8,0,0,1,1.606,0v7.4a0.786,0.786,0,0,1-.8.789,0.857,0.857,0,0,1-.8-0.789h0v-7.4Zm-4.116,0a0.786,0.786,0,0,1,.8-0.79,0.857,0.857,0,0,1,.8.79v7.4a0.786,0.786,0,0,1-.8.789,0.857,0.857,0,0,1-.8-0.789h0v-7.4Zm-4.217,0a0.8,0.8,0,0,1,1.606,0v7.4a0.8,0.8,0,0,1-1.606,0h0v-7.4Zm-5.02-15.2L8.739,2.154l0.2-.789A1.644,1.644,0,0,1,10.948.181h0l3.213,0.888a1.613,1.613,0,0,1,1.2,1.974h0l-0.2.789L21.59,5.51a1.613,1.613,0,0,1,1.2,1.974,1.644,1.644,0,0,1-2.008,1.184L1.409,3.635A1.613,1.613,0,0,1,.2,1.661,1.752,1.752,0,0,1,2.313.477Z" transform="translate(-0.156 -0.125)"/>
</svg>
