<svg xmlns="http://www.w3.org/2000/svg" width="23" height="24.906" viewBox="0 0 23 24.906">
  <defs>
    <style>
      .cls-1 {
        fill: #b40033;
        fill-rule: evenodd;
      }
    </style>
  </defs>
  <path id="trash-can" class="cls-1" d="M3.149,23.4A1.484,1.484,0,0,0,4.73,24.9H18.168a1.636,1.636,0,0,0,1.68-1.5L21.33,7.5H1.568Zm11.66-10.9a0.791,0.791,0,1,1,1.581,0V20a0.784,0.784,0,0,1-.791.8,0.855,0.855,0,0,1-.79-0.8V12.5Zm-4.15,0a0.784,0.784,0,0,1,.79-0.8,0.855,0.855,0,0,1,.79.8h0V20a0.784,0.784,0,0,1-.79.8,0.855,0.855,0,0,1-.79-0.8V12.5Zm-4.15,0a0.791,0.791,0,1,1,1.581,0V20a0.784,0.784,0,0,1-.791.8A0.855,0.855,0,0,1,6.508,20V12.5ZM21.33,2.5H14.809V1.7A1.726,1.726,0,0,0,13.228,0H9.868a1.723,1.723,0,0,0-1.68,1.6h0V2.4H1.568A1.824,1.824,0,0,0-.013,4.2,1.658,1.658,0,0,0,1.568,5.9H21.33a1.655,1.655,0,0,0,1.68-1.6,1.765,1.765,0,0,0-1.68-1.8h0Z"/>
</svg>
